<mxfile host="app.diagrams.net" agent="Mozilla/5.0 (Macintosh; Intel Mac OS X 10_15_7) AppleWebKit/537.36 (KHTML, like Gecko) Chrome/134.0.0.0 Safari/537.36" version="26.1.1">
  <diagram name="Page-1" id="3wJtyTECtPKDYDXTxwJ-">
    <mxGraphModel grid="0" page="1" gridSize="10" guides="1" tooltips="1" connect="1" arrows="1" fold="1" pageScale="1" pageWidth="1700" pageHeight="1100" math="0" shadow="0">
      <root>
        <mxCell id="0" />
        <mxCell id="1" parent="0" />
        <mxCell id="vHcdsUJvBwSIHfUrbDWg-3" value="UNet" style="shape=step;perimeter=stepPerimeter;whiteSpace=wrap;html=1;fixedSize=1;labelBackgroundColor=none;fillColor=#dae8fc;strokeColor=#6c8ebf;" vertex="1" parent="1">
          <mxGeometry x="690" y="690" width="120" height="80" as="geometry" />
        </mxCell>
        <mxCell id="NrXDbZhaZ0D5YyfvQVJX-6" style="edgeStyle=orthogonalEdgeStyle;rounded=0;orthogonalLoop=1;jettySize=auto;html=1;exitX=0;exitY=0;exitDx=40;exitDy=30;exitPerimeter=0;entryX=0;entryY=0.5;entryDx=0;entryDy=0;entryPerimeter=0;flowAnimation=1;shadow=1;" edge="1" parent="1" source="vHcdsUJvBwSIHfUrbDWg-6" target="r4aIxJMADVmIpxPD_YbJ-1">
          <mxGeometry relative="1" as="geometry">
            <mxPoint x="688.5" y="430" as="targetPoint" />
          </mxGeometry>
        </mxCell>
        <mxCell id="NrXDbZhaZ0D5YyfvQVJX-13" style="edgeStyle=orthogonalEdgeStyle;rounded=0;orthogonalLoop=1;jettySize=auto;html=1;exitX=0;exitY=0;exitDx=30;exitDy=40;exitPerimeter=0;entryX=0;entryY=0.5;entryDx=0;entryDy=0;flowAnimation=1;shadow=1;" edge="1" parent="1" source="vHcdsUJvBwSIHfUrbDWg-6" target="vHcdsUJvBwSIHfUrbDWg-3">
          <mxGeometry relative="1" as="geometry">
            <Array as="points">
              <mxPoint x="626" y="730" />
            </Array>
          </mxGeometry>
        </mxCell>
        <mxCell id="vHcdsUJvBwSIHfUrbDWg-6" value="Timestep&amp;nbsp;&lt;i style=&quot;background-color: transparent; color: light-dark(rgb(0, 0, 0), rgb(255, 255, 255));&quot;&gt;&lt;b&gt;t&lt;/b&gt;&lt;/i&gt;" style="shape=cube;whiteSpace=wrap;html=1;boundedLbl=1;backgroundOutline=1;darkOpacity=0.05;darkOpacity2=0.1;labelPosition=center;verticalLabelPosition=top;align=center;verticalAlign=bottom;fillColor=#f8cecc;strokeColor=#b85450;" vertex="1" parent="1">
          <mxGeometry x="596.5" y="400" width="40" height="40" as="geometry" />
        </mxCell>
        <mxCell id="NrXDbZhaZ0D5YyfvQVJX-8" style="edgeStyle=orthogonalEdgeStyle;rounded=0;orthogonalLoop=1;jettySize=auto;html=1;exitX=0;exitY=0;exitDx=120;exitDy=50;exitPerimeter=0;entryX=0;entryY=0.5;entryDx=0;entryDy=0;flowAnimation=1;shadow=1;" edge="1" parent="1" source="vHcdsUJvBwSIHfUrbDWg-12" target="STG6v0s9dP_hLEZZDNCE-15">
          <mxGeometry relative="1" as="geometry" />
        </mxCell>
        <mxCell id="NrXDbZhaZ0D5YyfvQVJX-9" style="edgeStyle=orthogonalEdgeStyle;rounded=0;orthogonalLoop=1;jettySize=auto;html=1;exitX=0;exitY=0;exitDx=70;exitDy=80;exitPerimeter=0;entryX=0.5;entryY=0;entryDx=0;entryDy=0;flowAnimation=1;shadow=1;" edge="1" parent="1" source="vHcdsUJvBwSIHfUrbDWg-12" target="vHcdsUJvBwSIHfUrbDWg-3">
          <mxGeometry relative="1" as="geometry" />
        </mxCell>
        <mxCell id="vHcdsUJvBwSIHfUrbDWg-12" value="Image at&amp;nbsp;&lt;div&gt;timestep &lt;b&gt;&lt;i&gt;t&lt;/i&gt;&lt;/b&gt;&lt;/div&gt;" style="shape=cube;whiteSpace=wrap;html=1;boundedLbl=1;backgroundOutline=1;darkOpacity=0.05;darkOpacity2=0.1;fillColor=#ffe6cc;strokeColor=#d79b00;" vertex="1" parent="1">
          <mxGeometry x="680" y="530" width="120" height="80" as="geometry" />
        </mxCell>
        <mxCell id="NrXDbZhaZ0D5YyfvQVJX-4" style="edgeStyle=orthogonalEdgeStyle;rounded=0;orthogonalLoop=1;jettySize=auto;html=1;exitX=0;exitY=0;exitDx=50;exitDy=0;exitPerimeter=0;entryX=0.5;entryY=1;entryDx=0;entryDy=0;flowAnimation=1;shadow=1;" edge="1" parent="1" source="vHcdsUJvBwSIHfUrbDWg-23" target="STG6v0s9dP_hLEZZDNCE-15">
          <mxGeometry relative="1" as="geometry" />
        </mxCell>
        <mxCell id="vHcdsUJvBwSIHfUrbDWg-23" value="Predicted Noise" style="shape=cube;whiteSpace=wrap;html=1;boundedLbl=1;backgroundOutline=1;darkOpacity=0.05;darkOpacity2=0.1;fillColor=#f5f5f5;fontColor=#333333;strokeColor=#666666;" vertex="1" parent="1">
          <mxGeometry x="870" y="700" width="120" height="80" as="geometry" />
        </mxCell>
        <mxCell id="vHcdsUJvBwSIHfUrbDWg-24" style="edgeStyle=orthogonalEdgeStyle;rounded=0;orthogonalLoop=1;jettySize=auto;html=1;exitX=1;exitY=0.5;exitDx=0;exitDy=0;entryX=0;entryY=0;entryDx=0;entryDy=30;entryPerimeter=0;flowAnimation=1;shadow=1;" edge="1" parent="1" source="vHcdsUJvBwSIHfUrbDWg-3" target="vHcdsUJvBwSIHfUrbDWg-23">
          <mxGeometry relative="1" as="geometry" />
        </mxCell>
        <mxCell id="NrXDbZhaZ0D5YyfvQVJX-7" style="edgeStyle=orthogonalEdgeStyle;rounded=0;orthogonalLoop=1;jettySize=auto;html=1;exitX=1;exitY=0.5;exitDx=0;exitDy=0;exitPerimeter=0;entryX=0;entryY=0.5;entryDx=0;entryDy=0;flowAnimation=1;shadow=1;" edge="1" parent="1" source="r4aIxJMADVmIpxPD_YbJ-1" target="o-6HpAL5L21hLreXKuFb-1">
          <mxGeometry relative="1" as="geometry">
            <mxPoint x="808.5" y="430" as="sourcePoint" />
            <mxPoint x="880" y="430" as="targetPoint" />
          </mxGeometry>
        </mxCell>
        <mxCell id="NrXDbZhaZ0D5YyfvQVJX-10" style="edgeStyle=orthogonalEdgeStyle;rounded=0;orthogonalLoop=1;jettySize=auto;html=1;entryX=0.5;entryY=0;entryDx=0;entryDy=0;exitX=0.5;exitY=1;exitDx=0;exitDy=0;flowAnimation=1;shadow=1;" edge="1" parent="1" source="o-6HpAL5L21hLreXKuFb-1" target="STG6v0s9dP_hLEZZDNCE-15">
          <mxGeometry relative="1" as="geometry">
            <mxPoint x="920" y="490" as="sourcePoint" />
          </mxGeometry>
        </mxCell>
        <mxCell id="STG6v0s9dP_hLEZZDNCE-15" value="Denoising&lt;div&gt;Function&lt;/div&gt;" style="ellipse;whiteSpace=wrap;html=1;fillColor=#e1d5e7;strokeColor=#9673a6;" vertex="1" parent="1">
          <mxGeometry x="860" y="540" width="120" height="80" as="geometry" />
        </mxCell>
        <mxCell id="NrXDbZhaZ0D5YyfvQVJX-2" value="Image at&amp;nbsp;&lt;div&gt;timestep &lt;b&gt;&lt;i&gt;t-1&lt;/i&gt;&lt;/b&gt;&lt;/div&gt;" style="shape=cube;whiteSpace=wrap;html=1;boundedLbl=1;backgroundOutline=1;darkOpacity=0.05;darkOpacity2=0.1;fillColor=#fff2cc;strokeColor=#d6b656;" vertex="1" parent="1">
          <mxGeometry x="1020" y="550" width="120" height="80" as="geometry" />
        </mxCell>
        <mxCell id="NrXDbZhaZ0D5YyfvQVJX-3" style="edgeStyle=orthogonalEdgeStyle;rounded=0;orthogonalLoop=1;jettySize=auto;html=1;exitX=1;exitY=0.5;exitDx=0;exitDy=0;entryX=0;entryY=0;entryDx=0;entryDy=30;entryPerimeter=0;flowAnimation=1;shadow=1;" edge="1" parent="1" source="STG6v0s9dP_hLEZZDNCE-15" target="NrXDbZhaZ0D5YyfvQVJX-2">
          <mxGeometry relative="1" as="geometry" />
        </mxCell>
        <mxCell id="r4aIxJMADVmIpxPD_YbJ-1" value="Noise Schedule" style="shape=cylinder3;whiteSpace=wrap;html=1;boundedLbl=1;backgroundOutline=1;size=15;fillColor=#f8cecc;strokeColor=#b85450;" vertex="1" parent="1">
          <mxGeometry x="720" y="390" width="60" height="80" as="geometry" />
        </mxCell>
        <mxCell id="o-6HpAL5L21hLreXKuFb-1" value="Noise Parameters" style="rounded=0;whiteSpace=wrap;html=1;fillColor=#f8cecc;strokeColor=#b85450;" vertex="1" parent="1">
          <mxGeometry x="880" y="405" width="80" height="50" as="geometry" />
        </mxCell>
      </root>
    </mxGraphModel>
  </diagram>
</mxfile>
